<mxfile host="app.diagrams.net" agent="Mozilla/5.0 (Windows NT 10.0; Win64; x64; rv:140.0) Gecko/20100101 Firefox/140.0" version="28.0.6">
  <diagram name="Page-1" id="JpDiISAEaKFTjsOlET9G">
    <mxGraphModel dx="1123" dy="599" grid="1" gridSize="10" guides="1" tooltips="1" connect="1" arrows="1" fold="1" page="1" pageScale="1" pageWidth="1169" pageHeight="827" math="0" shadow="0">
      <root>
        <mxCell id="0" />
        <mxCell id="1" parent="0" />
        <mxCell id="DC-grp8SkVzQaJDlY_uF-88" value="log indexing" style="rounded=0;whiteSpace=wrap;html=1;verticalAlign=top;align=left;" vertex="1" parent="1">
          <mxGeometry x="210" y="725" width="446.75" height="113" as="geometry" />
        </mxCell>
        <mxCell id="DC-grp8SkVzQaJDlY_uF-87" value="Visualization" style="rounded=0;whiteSpace=wrap;html=1;verticalAlign=top;align=right;labelBackgroundColor=none;fillColor=none;" vertex="1" parent="1">
          <mxGeometry x="544" y="722" width="370" height="120" as="geometry" />
        </mxCell>
        <mxCell id="DC-grp8SkVzQaJDlY_uF-65" value="&lt;div&gt;Log Ingestion&lt;/div&gt;" style="rounded=0;whiteSpace=wrap;html=1;verticalAlign=top;align=left;" vertex="1" parent="1">
          <mxGeometry x="163.75" y="898" width="390" height="251" as="geometry" />
        </mxCell>
        <mxCell id="DC-grp8SkVzQaJDlY_uF-64" value="demo resources" style="rounded=0;whiteSpace=wrap;html=1;verticalAlign=top;align=left;" vertex="1" parent="1">
          <mxGeometry x="183.75" y="1008" width="340" height="130" as="geometry" />
        </mxCell>
        <mxCell id="DC-grp8SkVzQaJDlY_uF-24" value="VPC" style="rounded=0;whiteSpace=wrap;html=1;align=left;verticalAlign=top;fontStyle=1" vertex="1" parent="1">
          <mxGeometry x="810" y="52" width="262" height="450" as="geometry" />
        </mxCell>
        <mxCell id="DC-grp8SkVzQaJDlY_uF-26" value="&lt;div&gt;&lt;font style=&quot;font-size: 11px;&quot;&gt;Virtual Vehicle V1&lt;/font&gt;&lt;/div&gt;" style="rounded=0;whiteSpace=wrap;html=1;align=center;verticalAlign=bottom;fontStyle=0" vertex="1" parent="1">
          <mxGeometry x="845" y="135" width="192" height="150" as="geometry" />
        </mxCell>
        <mxCell id="DC-grp8SkVzQaJDlY_uF-23" value="&lt;div&gt;&lt;b&gt;OTA Update Service&lt;/b&gt;&lt;/div&gt;" style="rounded=0;whiteSpace=wrap;html=1;align=left;verticalAlign=top;" vertex="1" parent="1">
          <mxGeometry x="118" y="52" width="602" height="450" as="geometry" />
        </mxCell>
        <mxCell id="DC-grp8SkVzQaJDlY_uF-1" value="Amazon CloudFront" style="sketch=0;points=[[0,0,0],[0.25,0,0],[0.5,0,0],[0.75,0,0],[1,0,0],[0,1,0],[0.25,1,0],[0.5,1,0],[0.75,1,0],[1,1,0],[0,0.25,0],[0,0.5,0],[0,0.75,0],[1,0.25,0],[1,0.5,0],[1,0.75,0]];outlineConnect=0;fontColor=#232F3E;fillColor=#8C4FFF;strokeColor=#ffffff;dashed=0;verticalLabelPosition=bottom;verticalAlign=top;align=center;html=1;fontSize=12;fontStyle=0;aspect=fixed;shape=mxgraph.aws4.resourceIcon;resIcon=mxgraph.aws4.cloudfront;" vertex="1" parent="1">
          <mxGeometry x="180" y="138" width="58" height="58" as="geometry" />
        </mxCell>
        <mxCell id="DC-grp8SkVzQaJDlY_uF-3" value="&lt;div&gt;Amazon S3&lt;/div&gt;&lt;div&gt;UI Resources bucket&lt;/div&gt;" style="sketch=0;points=[[0,0,0],[0.25,0,0],[0.5,0,0],[0.75,0,0],[1,0,0],[0,1,0],[0.25,1,0],[0.5,1,0],[0.75,1,0],[1,1,0],[0,0.25,0],[0,0.5,0],[0,0.75,0],[1,0.25,0],[1,0.5,0],[1,0.75,0]];outlineConnect=0;fontColor=#232F3E;fillColor=#7AA116;strokeColor=#ffffff;dashed=0;verticalLabelPosition=bottom;verticalAlign=top;align=center;html=1;fontSize=12;fontStyle=0;aspect=fixed;shape=mxgraph.aws4.resourceIcon;resIcon=mxgraph.aws4.s3;" vertex="1" parent="1">
          <mxGeometry x="310" y="138" width="58" height="58" as="geometry" />
        </mxCell>
        <mxCell id="DC-grp8SkVzQaJDlY_uF-4" style="edgeStyle=orthogonalEdgeStyle;rounded=0;orthogonalLoop=1;jettySize=auto;html=1;exitX=1;exitY=0.5;exitDx=0;exitDy=0;exitPerimeter=0;entryX=0;entryY=0.5;entryDx=0;entryDy=0;entryPerimeter=0;" edge="1" parent="1" source="DC-grp8SkVzQaJDlY_uF-1" target="DC-grp8SkVzQaJDlY_uF-3">
          <mxGeometry relative="1" as="geometry" />
        </mxCell>
        <mxCell id="DC-grp8SkVzQaJDlY_uF-6" value="Amazon API Gatway" style="sketch=0;points=[[0,0,0],[0.25,0,0],[0.5,0,0],[0.75,0,0],[1,0,0],[0,1,0],[0.25,1,0],[0.5,1,0],[0.75,1,0],[1,1,0],[0,0.25,0],[0,0.5,0],[0,0.75,0],[1,0.25,0],[1,0.5,0],[1,0.75,0]];outlineConnect=0;fontColor=#232F3E;fillColor=#E7157B;strokeColor=#ffffff;dashed=0;verticalLabelPosition=bottom;verticalAlign=top;align=center;html=1;fontSize=12;fontStyle=0;aspect=fixed;shape=mxgraph.aws4.resourceIcon;resIcon=mxgraph.aws4.api_gateway;" vertex="1" parent="1">
          <mxGeometry x="180" y="258" width="58" height="58" as="geometry" />
        </mxCell>
        <mxCell id="DC-grp8SkVzQaJDlY_uF-7" value="&lt;div&gt;Application&lt;/div&gt;&lt;div&gt;Load Balancer&lt;/div&gt;" style="outlineConnect=0;dashed=0;verticalLabelPosition=bottom;verticalAlign=top;align=center;html=1;shape=mxgraph.aws3.application_load_balancer;fillColor=#F58534;gradientColor=none;" vertex="1" parent="1">
          <mxGeometry x="301.5" y="257" width="59" height="60" as="geometry" />
        </mxCell>
        <mxCell id="DC-grp8SkVzQaJDlY_uF-8" style="edgeStyle=orthogonalEdgeStyle;rounded=0;orthogonalLoop=1;jettySize=auto;html=1;exitX=1;exitY=0.5;exitDx=0;exitDy=0;exitPerimeter=0;entryX=0;entryY=0.5;entryDx=0;entryDy=0;entryPerimeter=0;" edge="1" parent="1" source="DC-grp8SkVzQaJDlY_uF-6" target="DC-grp8SkVzQaJDlY_uF-7">
          <mxGeometry relative="1" as="geometry" />
        </mxCell>
        <mxCell id="DC-grp8SkVzQaJDlY_uF-9" value="&lt;div&gt;Amazon Elastic&lt;/div&gt;&lt;div&gt;Container Service (ECS)&lt;/div&gt;" style="sketch=0;points=[[0,0,0],[0.25,0,0],[0.5,0,0],[0.75,0,0],[1,0,0],[0,1,0],[0.25,1,0],[0.5,1,0],[0.75,1,0],[1,1,0],[0,0.25,0],[0,0.5,0],[0,0.75,0],[1,0.25,0],[1,0.5,0],[1,0.75,0]];outlineConnect=0;fontColor=#232F3E;fillColor=#ED7100;strokeColor=#ffffff;dashed=0;verticalLabelPosition=bottom;verticalAlign=top;align=center;html=1;fontSize=12;fontStyle=0;aspect=fixed;shape=mxgraph.aws4.resourceIcon;resIcon=mxgraph.aws4.ecs;" vertex="1" parent="1">
          <mxGeometry x="421" y="258" width="58" height="58" as="geometry" />
        </mxCell>
        <mxCell id="DC-grp8SkVzQaJDlY_uF-10" style="edgeStyle=orthogonalEdgeStyle;rounded=0;orthogonalLoop=1;jettySize=auto;html=1;exitX=1;exitY=0.5;exitDx=0;exitDy=0;exitPerimeter=0;entryX=0;entryY=0.5;entryDx=0;entryDy=0;entryPerimeter=0;" edge="1" parent="1" source="DC-grp8SkVzQaJDlY_uF-7" target="DC-grp8SkVzQaJDlY_uF-9">
          <mxGeometry relative="1" as="geometry" />
        </mxCell>
        <mxCell id="DC-grp8SkVzQaJDlY_uF-11" value="Amazon Cognito" style="sketch=0;points=[[0,0,0],[0.25,0,0],[0.5,0,0],[0.75,0,0],[1,0,0],[0,1,0],[0.25,1,0],[0.5,1,0],[0.75,1,0],[1,1,0],[0,0.25,0],[0,0.5,0],[0,0.75,0],[1,0.25,0],[1,0.5,0],[1,0.75,0]];outlineConnect=0;fontColor=#232F3E;fillColor=#DD344C;strokeColor=#ffffff;dashed=0;verticalLabelPosition=bottom;verticalAlign=top;align=center;html=1;fontSize=12;fontStyle=0;aspect=fixed;shape=mxgraph.aws4.resourceIcon;resIcon=mxgraph.aws4.cognito;" vertex="1" parent="1">
          <mxGeometry x="180" y="378" width="58" height="58" as="geometry" />
        </mxCell>
        <mxCell id="DC-grp8SkVzQaJDlY_uF-12" value="IoT rule" style="outlineConnect=0;dashed=0;verticalLabelPosition=bottom;verticalAlign=top;align=center;html=1;shape=mxgraph.aws3.rule;fillColor=#5294CF;gradientColor=none;" vertex="1" parent="1">
          <mxGeometry x="497" y="98" width="18.5" height="40" as="geometry" />
        </mxCell>
        <mxCell id="DC-grp8SkVzQaJDlY_uF-20" style="edgeStyle=orthogonalEdgeStyle;rounded=0;orthogonalLoop=1;jettySize=auto;html=1;exitX=0.5;exitY=0;exitDx=0;exitDy=0;exitPerimeter=0;" edge="1" parent="1" source="DC-grp8SkVzQaJDlY_uF-13" target="DC-grp8SkVzQaJDlY_uF-12">
          <mxGeometry relative="1" as="geometry" />
        </mxCell>
        <mxCell id="DC-grp8SkVzQaJDlY_uF-40" style="edgeStyle=orthogonalEdgeStyle;rounded=0;orthogonalLoop=1;jettySize=auto;html=1;exitX=1;exitY=0.25;exitDx=0;exitDy=0;exitPerimeter=0;entryX=0;entryY=0.25;entryDx=0;entryDy=0;" edge="1" parent="1" source="DC-grp8SkVzQaJDlY_uF-13" target="DC-grp8SkVzQaJDlY_uF-26">
          <mxGeometry relative="1" as="geometry">
            <Array as="points">
              <mxPoint x="770" y="153" />
              <mxPoint x="770" y="173" />
            </Array>
          </mxGeometry>
        </mxCell>
        <mxCell id="DC-grp8SkVzQaJDlY_uF-41" style="edgeStyle=orthogonalEdgeStyle;rounded=0;orthogonalLoop=1;jettySize=auto;html=1;exitX=1;exitY=0.25;exitDx=0;exitDy=0;exitPerimeter=0;entryX=0;entryY=0.25;entryDx=0;entryDy=0;" edge="1" parent="1" source="DC-grp8SkVzQaJDlY_uF-13" target="DC-grp8SkVzQaJDlY_uF-32">
          <mxGeometry relative="1" as="geometry">
            <Array as="points">
              <mxPoint x="770" y="153" />
              <mxPoint x="770" y="331" />
            </Array>
          </mxGeometry>
        </mxCell>
        <mxCell id="DC-grp8SkVzQaJDlY_uF-46" value="&amp;nbsp;MQTT&amp;nbsp;" style="edgeLabel;html=1;align=center;verticalAlign=middle;resizable=0;points=[];" vertex="1" connectable="0" parent="DC-grp8SkVzQaJDlY_uF-41">
          <mxGeometry x="-0.7157" relative="1" as="geometry">
            <mxPoint x="-4" as="offset" />
          </mxGeometry>
        </mxCell>
        <mxCell id="DC-grp8SkVzQaJDlY_uF-44" style="edgeStyle=orthogonalEdgeStyle;rounded=0;orthogonalLoop=1;jettySize=auto;html=1;exitX=1;exitY=0.75;exitDx=0;exitDy=0;exitPerimeter=0;entryX=0;entryY=0.75;entryDx=0;entryDy=0;" edge="1" parent="1" source="DC-grp8SkVzQaJDlY_uF-13" target="DC-grp8SkVzQaJDlY_uF-26">
          <mxGeometry relative="1" as="geometry" />
        </mxCell>
        <mxCell id="DC-grp8SkVzQaJDlY_uF-45" style="edgeStyle=orthogonalEdgeStyle;rounded=0;orthogonalLoop=1;jettySize=auto;html=1;exitX=1;exitY=0.75;exitDx=0;exitDy=0;exitPerimeter=0;entryX=0;entryY=0.75;entryDx=0;entryDy=0;" edge="1" parent="1" source="DC-grp8SkVzQaJDlY_uF-13" target="DC-grp8SkVzQaJDlY_uF-32">
          <mxGeometry relative="1" as="geometry" />
        </mxCell>
        <mxCell id="DC-grp8SkVzQaJDlY_uF-47" value="&amp;nbsp;HTTPS&amp;nbsp;" style="edgeLabel;html=1;align=center;verticalAlign=middle;resizable=0;points=[];" vertex="1" connectable="0" parent="DC-grp8SkVzQaJDlY_uF-45">
          <mxGeometry x="-0.8167" y="1" relative="1" as="geometry">
            <mxPoint x="11" as="offset" />
          </mxGeometry>
        </mxCell>
        <mxCell id="DC-grp8SkVzQaJDlY_uF-13" value="&lt;div&gt;AWS IoT Core&lt;/div&gt;&lt;div&gt;(Vehicle Integration)&lt;/div&gt;" style="sketch=0;points=[[0,0,0],[0.25,0,0],[0.5,0,0],[0.75,0,0],[1,0,0],[0,1,0],[0.25,1,0],[0.5,1,0],[0.75,1,0],[1,1,0],[0,0.25,0],[0,0.5,0],[0,0.75,0],[1,0.25,0],[1,0.5,0],[1,0.75,0]];outlineConnect=0;fontColor=#232F3E;fillColor=#7AA116;strokeColor=#ffffff;dashed=0;verticalLabelPosition=bottom;verticalAlign=top;align=center;html=1;fontSize=12;fontStyle=0;aspect=fixed;shape=mxgraph.aws4.resourceIcon;resIcon=mxgraph.aws4.iot_core;" vertex="1" parent="1">
          <mxGeometry x="570" y="138" width="58" height="58" as="geometry" />
        </mxCell>
        <mxCell id="DC-grp8SkVzQaJDlY_uF-15" value="&lt;div&gt;Amazon S3&lt;/div&gt;&lt;div&gt;Update Package&lt;/div&gt;&lt;div&gt;Repository Bucket&lt;/div&gt;" style="sketch=0;points=[[0,0,0],[0.25,0,0],[0.5,0,0],[0.75,0,0],[1,0,0],[0,1,0],[0.25,1,0],[0.5,1,0],[0.75,1,0],[1,1,0],[0,0.25,0],[0,0.5,0],[0,0.75,0],[1,0.25,0],[1,0.5,0],[1,0.75,0]];outlineConnect=0;fontColor=#232F3E;fillColor=#7AA116;strokeColor=#ffffff;dashed=0;verticalLabelPosition=bottom;verticalAlign=top;align=center;html=1;fontSize=12;fontStyle=0;aspect=fixed;shape=mxgraph.aws4.resourceIcon;resIcon=mxgraph.aws4.s3;" vertex="1" parent="1">
          <mxGeometry x="571" y="258" width="58" height="58" as="geometry" />
        </mxCell>
        <mxCell id="DC-grp8SkVzQaJDlY_uF-16" value="&lt;div&gt;Amazon Relational&lt;/div&gt;&lt;div&gt;Database Service&lt;/div&gt;" style="outlineConnect=0;dashed=0;verticalLabelPosition=bottom;verticalAlign=top;align=center;html=1;shape=mxgraph.aws3.rds_db_instance_standby_multi_az;fillColor=#2E73B8;gradientColor=none;" vertex="1" parent="1">
          <mxGeometry x="582.25" y="384" width="33.5" height="46" as="geometry" />
        </mxCell>
        <mxCell id="DC-grp8SkVzQaJDlY_uF-17" style="edgeStyle=orthogonalEdgeStyle;rounded=0;orthogonalLoop=1;jettySize=auto;html=1;exitX=1;exitY=0.25;exitDx=0;exitDy=0;exitPerimeter=0;entryX=0;entryY=0.5;entryDx=0;entryDy=0;entryPerimeter=0;" edge="1" parent="1" source="DC-grp8SkVzQaJDlY_uF-9" target="DC-grp8SkVzQaJDlY_uF-13">
          <mxGeometry relative="1" as="geometry" />
        </mxCell>
        <mxCell id="DC-grp8SkVzQaJDlY_uF-18" style="edgeStyle=orthogonalEdgeStyle;rounded=0;orthogonalLoop=1;jettySize=auto;html=1;exitX=1;exitY=0.5;exitDx=0;exitDy=0;exitPerimeter=0;entryX=0;entryY=0.5;entryDx=0;entryDy=0;entryPerimeter=0;" edge="1" parent="1" source="DC-grp8SkVzQaJDlY_uF-9" target="DC-grp8SkVzQaJDlY_uF-15">
          <mxGeometry relative="1" as="geometry" />
        </mxCell>
        <mxCell id="DC-grp8SkVzQaJDlY_uF-19" style="edgeStyle=orthogonalEdgeStyle;rounded=0;orthogonalLoop=1;jettySize=auto;html=1;exitX=1;exitY=0.75;exitDx=0;exitDy=0;exitPerimeter=0;entryX=0;entryY=0.5;entryDx=0;entryDy=0;entryPerimeter=0;" edge="1" parent="1" source="DC-grp8SkVzQaJDlY_uF-9" target="DC-grp8SkVzQaJDlY_uF-16">
          <mxGeometry relative="1" as="geometry" />
        </mxCell>
        <mxCell id="DC-grp8SkVzQaJDlY_uF-22" style="edgeStyle=orthogonalEdgeStyle;rounded=0;orthogonalLoop=1;jettySize=auto;html=1;exitX=0;exitY=0.5;exitDx=0;exitDy=0;exitPerimeter=0;entryX=0.5;entryY=0;entryDx=0;entryDy=0;entryPerimeter=0;" edge="1" parent="1" source="DC-grp8SkVzQaJDlY_uF-12" target="DC-grp8SkVzQaJDlY_uF-9">
          <mxGeometry relative="1" as="geometry" />
        </mxCell>
        <mxCell id="DC-grp8SkVzQaJDlY_uF-25" value="Amazon EC2" style="rounded=0;whiteSpace=wrap;html=1;verticalAlign=top;fillColor=#f5f5f5;fontColor=#333333;strokeColor=#666666;" vertex="1" parent="1">
          <mxGeometry x="860" y="151" width="156" height="114" as="geometry" />
        </mxCell>
        <mxCell id="DC-grp8SkVzQaJDlY_uF-28" value="&lt;font style=&quot;font-size: 10px;&quot;&gt;Update Service&lt;/font&gt;" style="rounded=0;whiteSpace=wrap;html=1;fillColor=#f8cecc;strokeColor=#b85450;" vertex="1" parent="1">
          <mxGeometry x="870" y="180" width="40" height="50" as="geometry" />
        </mxCell>
        <mxCell id="DC-grp8SkVzQaJDlY_uF-29" value="App" style="rounded=0;whiteSpace=wrap;html=1;" vertex="1" parent="1">
          <mxGeometry x="920" y="180" width="40" height="25" as="geometry" />
        </mxCell>
        <mxCell id="DC-grp8SkVzQaJDlY_uF-30" value="App" style="rounded=0;whiteSpace=wrap;html=1;" vertex="1" parent="1">
          <mxGeometry x="960" y="180" width="40" height="25" as="geometry" />
        </mxCell>
        <mxCell id="DC-grp8SkVzQaJDlY_uF-31" value="Container" style="rounded=0;whiteSpace=wrap;html=1;" vertex="1" parent="1">
          <mxGeometry x="920" y="205" width="80" height="25" as="geometry" />
        </mxCell>
        <mxCell id="DC-grp8SkVzQaJDlY_uF-32" value="&lt;font style=&quot;font-size: 11px;&quot;&gt;Virtual Vehicle V2&lt;/font&gt;" style="rounded=0;whiteSpace=wrap;html=1;align=center;verticalAlign=bottom;fontStyle=0" vertex="1" parent="1">
          <mxGeometry x="845" y="293" width="192" height="150" as="geometry" />
        </mxCell>
        <mxCell id="DC-grp8SkVzQaJDlY_uF-33" value="Amazon EC2" style="rounded=0;whiteSpace=wrap;html=1;verticalAlign=top;fillColor=#f5f5f5;fontColor=#333333;strokeColor=#666666;" vertex="1" parent="1">
          <mxGeometry x="860" y="309" width="156" height="114" as="geometry" />
        </mxCell>
        <mxCell id="DC-grp8SkVzQaJDlY_uF-34" value="&lt;font style=&quot;font-size: 10px;&quot;&gt;Update Service&lt;/font&gt;" style="rounded=0;whiteSpace=wrap;html=1;fillColor=#f8cecc;strokeColor=#b85450;" vertex="1" parent="1">
          <mxGeometry x="870" y="338" width="40" height="50" as="geometry" />
        </mxCell>
        <mxCell id="DC-grp8SkVzQaJDlY_uF-35" value="App" style="rounded=0;whiteSpace=wrap;html=1;" vertex="1" parent="1">
          <mxGeometry x="920" y="338" width="40" height="25" as="geometry" />
        </mxCell>
        <mxCell id="DC-grp8SkVzQaJDlY_uF-36" value="App" style="rounded=0;whiteSpace=wrap;html=1;" vertex="1" parent="1">
          <mxGeometry x="960" y="338" width="40" height="25" as="geometry" />
        </mxCell>
        <mxCell id="DC-grp8SkVzQaJDlY_uF-37" value="Container" style="rounded=0;whiteSpace=wrap;html=1;" vertex="1" parent="1">
          <mxGeometry x="920" y="363" width="80" height="25" as="geometry" />
        </mxCell>
        <UserObject label="Reference: https://aws.amazon.com/blogs/apn/building-an-over-the-air-software-updater-for-the-automotive-industry-using-aws/" link="https://aws.amazon.com/blogs/apn/building-an-over-the-air-software-updater-for-the-automotive-industry-using-aws/" id="DC-grp8SkVzQaJDlY_uF-48">
          <mxCell style="text;html=1;align=left;verticalAlign=middle;whiteSpace=wrap;rounded=0;" vertex="1" parent="1">
            <mxGeometry x="116.25" y="497" width="780" height="30" as="geometry" />
          </mxCell>
        </UserObject>
        <mxCell id="DC-grp8SkVzQaJDlY_uF-49" value="OTA" style="text;html=1;align=center;verticalAlign=middle;whiteSpace=wrap;rounded=0;fontStyle=1;fontSize=23;fontColor=light-dark(#ff8000, #ededed);" vertex="1" parent="1">
          <mxGeometry x="110" y="15" width="60" height="30" as="geometry" />
        </mxCell>
        <mxCell id="DC-grp8SkVzQaJDlY_uF-52" value="Problem Analysis" style="text;html=1;align=left;verticalAlign=middle;whiteSpace=wrap;rounded=0;fontStyle=1;fontSize=23;fontColor=light-dark(#ff8000, #ededed);" vertex="1" parent="1">
          <mxGeometry x="118" y="540" width="263.75" height="30" as="geometry" />
        </mxCell>
        <mxCell id="DC-grp8SkVzQaJDlY_uF-53" value="AME" style="text;html=1;align=left;verticalAlign=middle;whiteSpace=wrap;rounded=0;fontStyle=1;fontSize=23;fontColor=light-dark(#ff8000, #ededed);" vertex="1" parent="1">
          <mxGeometry x="110" y="1240" width="263.75" height="30" as="geometry" />
        </mxCell>
        <mxCell id="DC-grp8SkVzQaJDlY_uF-54" value="Diagnostics" style="text;html=1;align=left;verticalAlign=middle;whiteSpace=wrap;rounded=0;fontStyle=1;fontSize=23;fontColor=light-dark(#ff8000, #ededed);" vertex="1" parent="1">
          <mxGeometry x="110" y="1275" width="263.75" height="30" as="geometry" />
        </mxCell>
        <mxCell id="DC-grp8SkVzQaJDlY_uF-55" value="Testing" style="text;html=1;align=left;verticalAlign=middle;whiteSpace=wrap;rounded=0;fontStyle=1;fontSize=23;fontColor=light-dark(#ff8000, #ededed);" vertex="1" parent="1">
          <mxGeometry x="110" y="1308" width="263.75" height="30" as="geometry" />
        </mxCell>
        <mxCell id="DC-grp8SkVzQaJDlY_uF-56" value="Emulator" style="text;html=1;align=left;verticalAlign=middle;whiteSpace=wrap;rounded=0;fontStyle=1;fontSize=23;fontColor=light-dark(#ff8000, #ededed);" vertex="1" parent="1">
          <mxGeometry x="110" y="1341" width="263.75" height="30" as="geometry" />
        </mxCell>
        <mxCell id="DC-grp8SkVzQaJDlY_uF-57" value="Security" style="text;html=1;align=left;verticalAlign=middle;whiteSpace=wrap;rounded=0;fontStyle=1;fontSize=23;fontColor=light-dark(#ff8000, #ededed);" vertex="1" parent="1">
          <mxGeometry x="110" y="1377" width="263.75" height="30" as="geometry" />
        </mxCell>
        <mxCell id="DC-grp8SkVzQaJDlY_uF-58" value="AWS CloudTrail" style="sketch=0;points=[[0,0,0],[0.25,0,0],[0.5,0,0],[0.75,0,0],[1,0,0],[0,1,0],[0.25,1,0],[0.5,1,0],[0.75,1,0],[1,1,0],[0,0.25,0],[0,0.5,0],[0,0.75,0],[1,0.25,0],[1,0.5,0],[1,0.75,0]];points=[[0,0,0],[0.25,0,0],[0.5,0,0],[0.75,0,0],[1,0,0],[0,1,0],[0.25,1,0],[0.5,1,0],[0.75,1,0],[1,1,0],[0,0.25,0],[0,0.5,0],[0,0.75,0],[1,0.25,0],[1,0.5,0],[1,0.75,0]];outlineConnect=0;fontColor=#232F3E;fillColor=#E7157B;strokeColor=#ffffff;dashed=0;verticalLabelPosition=bottom;verticalAlign=top;align=center;html=1;fontSize=12;fontStyle=0;aspect=fixed;shape=mxgraph.aws4.resourceIcon;resIcon=mxgraph.aws4.cloudtrail;" vertex="1" parent="1">
          <mxGeometry x="212.37" y="1040" width="59" height="59" as="geometry" />
        </mxCell>
        <mxCell id="DC-grp8SkVzQaJDlY_uF-60" value="&lt;div&gt;Amazon VPC&lt;/div&gt;&lt;div&gt;flow logs&lt;/div&gt;" style="sketch=0;outlineConnect=0;fontColor=#232F3E;gradientColor=none;fillColor=#8C4FFF;strokeColor=none;dashed=0;verticalLabelPosition=bottom;verticalAlign=top;align=center;html=1;fontSize=12;fontStyle=0;aspect=fixed;pointerEvents=1;shape=mxgraph.aws4.flow_logs;" vertex="1" parent="1">
          <mxGeometry x="443.75" y="1040" width="56" height="56" as="geometry" />
        </mxCell>
        <mxCell id="DC-grp8SkVzQaJDlY_uF-63" style="edgeStyle=orthogonalEdgeStyle;rounded=0;orthogonalLoop=1;jettySize=auto;html=1;exitX=0.5;exitY=0.095;exitDx=0;exitDy=0;exitPerimeter=0;" edge="1" parent="1" source="DC-grp8SkVzQaJDlY_uF-61" target="DC-grp8SkVzQaJDlY_uF-62">
          <mxGeometry relative="1" as="geometry" />
        </mxCell>
        <mxCell id="DC-grp8SkVzQaJDlY_uF-61" value="&lt;div&gt;Amazon Elastic&lt;/div&gt;&lt;div&gt;Compute Cloud (ECS)&lt;/div&gt;" style="outlineConnect=0;dashed=0;verticalLabelPosition=bottom;verticalAlign=top;align=center;html=1;shape=mxgraph.aws3.ecs;fillColor=#F58534;gradientColor=none;" vertex="1" parent="1">
          <mxGeometry x="333.75" y="1038" width="62" height="60" as="geometry" />
        </mxCell>
        <mxCell id="DC-grp8SkVzQaJDlY_uF-62" value="&lt;div&gt;Amazon CloudWatch&lt;/div&gt;&lt;div&gt;Logs destination&lt;/div&gt;" style="sketch=0;points=[[0,0,0],[0.25,0,0],[0.5,0,0],[0.75,0,0],[1,0,0],[0,1,0],[0.25,1,0],[0.5,1,0],[0.75,1,0],[1,1,0],[0,0.25,0],[0,0.5,0],[0,0.75,0],[1,0.25,0],[1,0.5,0],[1,0.75,0]];points=[[0,0,0],[0.25,0,0],[0.5,0,0],[0.75,0,0],[1,0,0],[0,1,0],[0.25,1,0],[0.5,1,0],[0.75,1,0],[1,1,0],[0,0.25,0],[0,0.5,0],[0,0.75,0],[1,0.25,0],[1,0.5,0],[1,0.75,0]];outlineConnect=0;fontColor=#232F3E;fillColor=#E7157B;strokeColor=#ffffff;dashed=0;verticalLabelPosition=bottom;verticalAlign=top;align=center;html=1;fontSize=12;fontStyle=0;aspect=fixed;shape=mxgraph.aws4.resourceIcon;resIcon=mxgraph.aws4.cloudwatch_2;" vertex="1" parent="1">
          <mxGeometry x="335.75" y="907" width="58" height="58" as="geometry" />
        </mxCell>
        <mxCell id="DC-grp8SkVzQaJDlY_uF-66" value="&lt;div&gt;Log Ingestion&lt;/div&gt;" style="rounded=0;whiteSpace=wrap;html=1;verticalAlign=top;align=left;" vertex="1" parent="1">
          <mxGeometry x="640.75" y="898" width="390" height="251" as="geometry" />
        </mxCell>
        <mxCell id="DC-grp8SkVzQaJDlY_uF-67" value="demo resources" style="rounded=0;whiteSpace=wrap;html=1;verticalAlign=top;align=left;" vertex="1" parent="1">
          <mxGeometry x="660.75" y="1008" width="340" height="130" as="geometry" />
        </mxCell>
        <mxCell id="DC-grp8SkVzQaJDlY_uF-68" value="AWS CloudTrail" style="sketch=0;points=[[0,0,0],[0.25,0,0],[0.5,0,0],[0.75,0,0],[1,0,0],[0,1,0],[0.25,1,0],[0.5,1,0],[0.75,1,0],[1,1,0],[0,0.25,0],[0,0.5,0],[0,0.75,0],[1,0.25,0],[1,0.5,0],[1,0.75,0]];points=[[0,0,0],[0.25,0,0],[0.5,0,0],[0.75,0,0],[1,0,0],[0,1,0],[0.25,1,0],[0.5,1,0],[0.75,1,0],[1,1,0],[0,0.25,0],[0,0.5,0],[0,0.75,0],[1,0.25,0],[1,0.5,0],[1,0.75,0]];outlineConnect=0;fontColor=#232F3E;fillColor=#E7157B;strokeColor=#ffffff;dashed=0;verticalLabelPosition=bottom;verticalAlign=top;align=center;html=1;fontSize=12;fontStyle=0;aspect=fixed;shape=mxgraph.aws4.resourceIcon;resIcon=mxgraph.aws4.cloudtrail;" vertex="1" parent="1">
          <mxGeometry x="689.37" y="1040" width="59" height="59" as="geometry" />
        </mxCell>
        <mxCell id="DC-grp8SkVzQaJDlY_uF-69" value="&lt;div&gt;Amazon VPC&lt;/div&gt;&lt;div&gt;flow logs&lt;/div&gt;" style="sketch=0;outlineConnect=0;fontColor=#232F3E;gradientColor=none;fillColor=#8C4FFF;strokeColor=none;dashed=0;verticalLabelPosition=bottom;verticalAlign=top;align=center;html=1;fontSize=12;fontStyle=0;aspect=fixed;pointerEvents=1;shape=mxgraph.aws4.flow_logs;" vertex="1" parent="1">
          <mxGeometry x="920.75" y="1040" width="56" height="56" as="geometry" />
        </mxCell>
        <mxCell id="DC-grp8SkVzQaJDlY_uF-70" style="edgeStyle=orthogonalEdgeStyle;rounded=0;orthogonalLoop=1;jettySize=auto;html=1;exitX=0.5;exitY=0.095;exitDx=0;exitDy=0;exitPerimeter=0;" edge="1" parent="1" source="DC-grp8SkVzQaJDlY_uF-71" target="DC-grp8SkVzQaJDlY_uF-72">
          <mxGeometry relative="1" as="geometry" />
        </mxCell>
        <mxCell id="DC-grp8SkVzQaJDlY_uF-71" value="&lt;div&gt;Amazon Elastic&lt;/div&gt;&lt;div&gt;Compute Cloud (ECS)&lt;/div&gt;" style="outlineConnect=0;dashed=0;verticalLabelPosition=bottom;verticalAlign=top;align=center;html=1;shape=mxgraph.aws3.ecs;fillColor=#F58534;gradientColor=none;" vertex="1" parent="1">
          <mxGeometry x="810.75" y="1038" width="62" height="60" as="geometry" />
        </mxCell>
        <mxCell id="DC-grp8SkVzQaJDlY_uF-72" value="&lt;div&gt;Amazon CloudWatch&lt;/div&gt;&lt;div&gt;Logs destination&lt;/div&gt;" style="sketch=0;points=[[0,0,0],[0.25,0,0],[0.5,0,0],[0.75,0,0],[1,0,0],[0,1,0],[0.25,1,0],[0.5,1,0],[0.75,1,0],[1,1,0],[0,0.25,0],[0,0.5,0],[0,0.75,0],[1,0.25,0],[1,0.5,0],[1,0.75,0]];points=[[0,0,0],[0.25,0,0],[0.5,0,0],[0.75,0,0],[1,0,0],[0,1,0],[0.25,1,0],[0.5,1,0],[0.75,1,0],[1,1,0],[0,0.25,0],[0,0.5,0],[0,0.75,0],[1,0.25,0],[1,0.5,0],[1,0.75,0]];outlineConnect=0;fontColor=#232F3E;fillColor=#E7157B;strokeColor=#ffffff;dashed=0;verticalLabelPosition=bottom;verticalAlign=top;align=center;html=1;fontSize=12;fontStyle=0;aspect=fixed;shape=mxgraph.aws4.resourceIcon;resIcon=mxgraph.aws4.cloudwatch_2;" vertex="1" parent="1">
          <mxGeometry x="812.75" y="907" width="58" height="58" as="geometry" />
        </mxCell>
        <mxCell id="DC-grp8SkVzQaJDlY_uF-73" value="&lt;div&gt;Amazon Kinesis&lt;/div&gt;&lt;div&gt;Data Streams&lt;/div&gt;" style="sketch=0;points=[[0,0,0],[0.25,0,0],[0.5,0,0],[0.75,0,0],[1,0,0],[0,1,0],[0.25,1,0],[0.5,1,0],[0.75,1,0],[1,1,0],[0,0.25,0],[0,0.5,0],[0,0.75,0],[1,0.25,0],[1,0.5,0],[1,0.75,0]];outlineConnect=0;fontColor=#232F3E;fillColor=#8C4FFF;strokeColor=#ffffff;dashed=0;verticalLabelPosition=bottom;verticalAlign=top;align=center;html=1;fontSize=12;fontStyle=0;aspect=fixed;shape=mxgraph.aws4.resourceIcon;resIcon=mxgraph.aws4.kinesis_data_streams;" vertex="1" parent="1">
          <mxGeometry x="250" y="747" width="52" height="52" as="geometry" />
        </mxCell>
        <mxCell id="DC-grp8SkVzQaJDlY_uF-74" value="AWS Lambda" style="sketch=0;points=[[0,0,0],[0.25,0,0],[0.5,0,0],[0.75,0,0],[1,0,0],[0,1,0],[0.25,1,0],[0.5,1,0],[0.75,1,0],[1,1,0],[0,0.25,0],[0,0.5,0],[0,0.75,0],[1,0.25,0],[1,0.5,0],[1,0.75,0]];outlineConnect=0;fontColor=#232F3E;fillColor=#ED7100;strokeColor=#ffffff;dashed=0;verticalLabelPosition=bottom;verticalAlign=top;align=center;html=1;fontSize=12;fontStyle=0;aspect=fixed;shape=mxgraph.aws4.resourceIcon;resIcon=mxgraph.aws4.lambda;" vertex="1" parent="1">
          <mxGeometry x="360.5" y="749" width="48" height="48" as="geometry" />
        </mxCell>
        <mxCell id="DC-grp8SkVzQaJDlY_uF-79" style="edgeStyle=orthogonalEdgeStyle;rounded=0;orthogonalLoop=1;jettySize=auto;html=1;exitX=0.5;exitY=0;exitDx=0;exitDy=0;exitPerimeter=0;" edge="1" parent="1" source="DC-grp8SkVzQaJDlY_uF-75" target="DC-grp8SkVzQaJDlY_uF-78">
          <mxGeometry relative="1" as="geometry" />
        </mxCell>
        <mxCell id="DC-grp8SkVzQaJDlY_uF-75" value="&lt;div&gt;Amazon Kinesis&lt;/div&gt;&lt;div&gt;Data Firehose&lt;/div&gt;" style="sketch=0;points=[[0,0,0],[0.25,0,0],[0.5,0,0],[0.75,0,0],[1,0,0],[0,1,0],[0.25,1,0],[0.5,1,0],[0.75,1,0],[1,1,0],[0,0.25,0],[0,0.5,0],[0,0.75,0],[1,0.25,0],[1,0.5,0],[1,0.75,0]];outlineConnect=0;fontColor=#232F3E;fillColor=#8C4FFF;strokeColor=#ffffff;dashed=0;verticalLabelPosition=bottom;verticalAlign=top;align=center;html=1;fontSize=12;fontStyle=0;aspect=fixed;shape=mxgraph.aws4.resourceIcon;resIcon=mxgraph.aws4.kinesis_data_firehose;" vertex="1" parent="1">
          <mxGeometry x="469.75" y="746" width="54" height="54" as="geometry" />
        </mxCell>
        <mxCell id="DC-grp8SkVzQaJDlY_uF-76" value="&lt;div&gt;Amazon&lt;/div&gt;&lt;div&gt;OpenSearch Service&lt;/div&gt;" style="sketch=0;points=[[0,0,0],[0.25,0,0],[0.5,0,0],[0.75,0,0],[1,0,0],[0,1,0],[0.25,1,0],[0.5,1,0],[0.75,1,0],[1,1,0],[0,0.25,0],[0,0.5,0],[0,0.75,0],[1,0.25,0],[1,0.5,0],[1,0.75,0]];outlineConnect=0;fontColor=#232F3E;fillColor=#8C4FFF;strokeColor=#ffffff;dashed=0;verticalLabelPosition=bottom;verticalAlign=top;align=center;html=1;fontSize=12;fontStyle=0;aspect=fixed;shape=mxgraph.aws4.resourceIcon;resIcon=mxgraph.aws4.elasticsearch_service;" vertex="1" parent="1">
          <mxGeometry x="576" y="747" width="53" height="53" as="geometry" />
        </mxCell>
        <mxCell id="DC-grp8SkVzQaJDlY_uF-83" style="edgeStyle=orthogonalEdgeStyle;rounded=0;orthogonalLoop=1;jettySize=auto;html=1;exitX=0;exitY=0.5;exitDx=0;exitDy=0;exitPerimeter=0;" edge="1" parent="1" source="DC-grp8SkVzQaJDlY_uF-77" target="DC-grp8SkVzQaJDlY_uF-76">
          <mxGeometry relative="1" as="geometry" />
        </mxCell>
        <mxCell id="DC-grp8SkVzQaJDlY_uF-77" value="Amazon Cognito" style="sketch=0;points=[[0,0,0],[0.25,0,0],[0.5,0,0],[0.75,0,0],[1,0,0],[0,1,0],[0.25,1,0],[0.5,1,0],[0.75,1,0],[1,1,0],[0,0.25,0],[0,0.5,0],[0,0.75,0],[1,0.25,0],[1,0.5,0],[1,0.75,0]];outlineConnect=0;fontColor=#232F3E;fillColor=#DD344C;strokeColor=#ffffff;dashed=0;verticalLabelPosition=bottom;verticalAlign=top;align=center;html=1;fontSize=12;fontStyle=0;aspect=fixed;shape=mxgraph.aws4.resourceIcon;resIcon=mxgraph.aws4.cognito;" vertex="1" parent="1">
          <mxGeometry x="693" y="750" width="48" height="48" as="geometry" />
        </mxCell>
        <mxCell id="DC-grp8SkVzQaJDlY_uF-78" value="&lt;div&gt;Amazon Simple&lt;/div&gt;&lt;div&gt;Storage Service (S3)&lt;/div&gt;" style="sketch=0;points=[[0,0,0],[0.25,0,0],[0.5,0,0],[0.75,0,0],[1,0,0],[0,1,0],[0.25,1,0],[0.5,1,0],[0.75,1,0],[1,1,0],[0,0.25,0],[0,0.5,0],[0,0.75,0],[1,0.25,0],[1,0.5,0],[1,0.75,0]];outlineConnect=0;fontColor=#232F3E;fillColor=#7AA116;strokeColor=#ffffff;dashed=0;verticalLabelPosition=bottom;verticalAlign=top;align=center;html=1;fontSize=12;fontStyle=0;aspect=fixed;shape=mxgraph.aws4.resourceIcon;resIcon=mxgraph.aws4.s3;" vertex="1" parent="1">
          <mxGeometry x="469.25" y="620" width="55" height="55" as="geometry" />
        </mxCell>
        <mxCell id="DC-grp8SkVzQaJDlY_uF-80" style="edgeStyle=orthogonalEdgeStyle;rounded=0;orthogonalLoop=1;jettySize=auto;html=1;exitX=1;exitY=0.5;exitDx=0;exitDy=0;exitPerimeter=0;entryX=0;entryY=0.5;entryDx=0;entryDy=0;entryPerimeter=0;" edge="1" parent="1" source="DC-grp8SkVzQaJDlY_uF-73" target="DC-grp8SkVzQaJDlY_uF-74">
          <mxGeometry relative="1" as="geometry" />
        </mxCell>
        <mxCell id="DC-grp8SkVzQaJDlY_uF-81" style="edgeStyle=orthogonalEdgeStyle;rounded=0;orthogonalLoop=1;jettySize=auto;html=1;exitX=1;exitY=0.5;exitDx=0;exitDy=0;exitPerimeter=0;entryX=0;entryY=0.5;entryDx=0;entryDy=0;entryPerimeter=0;" edge="1" parent="1" source="DC-grp8SkVzQaJDlY_uF-74" target="DC-grp8SkVzQaJDlY_uF-75">
          <mxGeometry relative="1" as="geometry" />
        </mxCell>
        <mxCell id="DC-grp8SkVzQaJDlY_uF-82" style="edgeStyle=orthogonalEdgeStyle;rounded=0;orthogonalLoop=1;jettySize=auto;html=1;exitX=1;exitY=0.5;exitDx=0;exitDy=0;exitPerimeter=0;entryX=0;entryY=0.5;entryDx=0;entryDy=0;entryPerimeter=0;" edge="1" parent="1" source="DC-grp8SkVzQaJDlY_uF-75" target="DC-grp8SkVzQaJDlY_uF-76">
          <mxGeometry relative="1" as="geometry" />
        </mxCell>
        <mxCell id="DC-grp8SkVzQaJDlY_uF-84" value="Kibana (User)" style="fontColor=#0066CC;verticalAlign=top;verticalLabelPosition=bottom;labelPosition=center;align=center;html=1;outlineConnect=0;fillColor=#CCCCCC;strokeColor=#6881B3;gradientColor=none;gradientDirection=north;strokeWidth=2;shape=mxgraph.networks.pc;" vertex="1" parent="1">
          <mxGeometry x="804.25" y="747" width="80" height="55" as="geometry" />
        </mxCell>
        <mxCell id="DC-grp8SkVzQaJDlY_uF-86" style="edgeStyle=orthogonalEdgeStyle;rounded=0;orthogonalLoop=1;jettySize=auto;html=1;exitX=0;exitY=0.5;exitDx=0;exitDy=0;exitPerimeter=0;entryX=1;entryY=0.5;entryDx=0;entryDy=0;entryPerimeter=0;" edge="1" parent="1" source="DC-grp8SkVzQaJDlY_uF-84" target="DC-grp8SkVzQaJDlY_uF-77">
          <mxGeometry relative="1" as="geometry" />
        </mxCell>
        <mxCell id="DC-grp8SkVzQaJDlY_uF-90" style="edgeStyle=orthogonalEdgeStyle;rounded=0;orthogonalLoop=1;jettySize=auto;html=1;exitX=0.5;exitY=0;exitDx=0;exitDy=0;exitPerimeter=0;entryX=0.5;entryY=1;entryDx=0;entryDy=0;entryPerimeter=0;" edge="1" parent="1" source="DC-grp8SkVzQaJDlY_uF-62" target="DC-grp8SkVzQaJDlY_uF-73">
          <mxGeometry relative="1" as="geometry" />
        </mxCell>
        <mxCell id="DC-grp8SkVzQaJDlY_uF-91" style="edgeStyle=orthogonalEdgeStyle;rounded=0;orthogonalLoop=1;jettySize=auto;html=1;exitX=0.5;exitY=0;exitDx=0;exitDy=0;exitPerimeter=0;entryX=0.5;entryY=1;entryDx=0;entryDy=0;entryPerimeter=0;" edge="1" parent="1" source="DC-grp8SkVzQaJDlY_uF-72" target="DC-grp8SkVzQaJDlY_uF-73">
          <mxGeometry relative="1" as="geometry" />
        </mxCell>
      </root>
    </mxGraphModel>
  </diagram>
</mxfile>
